<svg xmlns="http://www.w3.org/2000/svg" width="456.085" height="409.324" viewBox="0 0 456.085 409.324"><defs><style>.a{fill:#f3a300;}.b{fill:#fff;}</style></defs><g transform="translate(-891.741 -680.676)"><g transform="translate(1041.108 845.479) rotate(-51)"><ellipse class="a" cx="88.56" cy="88.56" rx="88.56" ry="88.56" transform="translate(0 0)"/><g transform="translate(104.746 45.534)"><path class="b" d="M603.589,352.226h-.015a3.219,3.219,0,1,0,.015,0Zm0,20.16h-.015a3.219,3.219,0,1,0,.015,0Zm0,40.323h-.015a3.219,3.219,0,1,0,.015,0Zm0-20.162h-.015a3.219,3.219,0,1,0,.015,0Zm22.96-100.808h-.018a3.221,3.221,0,1,0,.018,0Zm-22.96,40.326h-.015a3.219,3.219,0,1,0,.015,0Zm-22.959,46.745a3.212,3.212,0,1,0,0-6.423h-.015a3.212,3.212,0,1,0,.015,6.423Zm0,20.162a3.212,3.212,0,1,0,0-6.423h-.015a3.212,3.212,0,1,0,.015,6.423Zm22.959-127.393h-.015a3.219,3.219,0,1,0,.015,0Zm0,20.162h-.015a3.219,3.219,0,1,0,.015,0Zm0,20.162h-.015a3.219,3.219,0,1,0,.015,0Zm68.876,46.749a3.212,3.212,0,1,0,0-6.423h-.015a3.212,3.212,0,0,0,.015,6.423Zm0-20.162a3.212,3.212,0,1,0,0-6.423h-.015a3.212,3.212,0,0,0,.015,6.423Zm-1.251-20.417a3.236,3.236,0,0,0,1.251.251,3.166,3.166,0,0,0,1.31-.292l.035-.022a3.2,3.2,0,0,0,1.015-.758h0a3.179,3.179,0,0,0,.852-2.14,3.212,3.212,0,0,0-3.212-3.212h-.015a3.2,3.2,0,0,0-3.2,3.212h0v0A3.216,3.216,0,0,0,671.214,318.071ZM582.9,413.65a3.551,3.551,0,0,0-.333-.224,3.138,3.138,0,0,0-1.937-.717h-.017a3.2,3.2,0,0,0-2.281,5.45l0,0a3.208,3.208,0,0,0,2.3.97,3.135,3.135,0,0,0,.477-.1h0l.006,0a3.137,3.137,0,0,0,1.9-1.018,2.819,2.819,0,0,0,.192-.285,2.74,2.74,0,0,0,.628-1.8l0-.015a3.17,3.17,0,0,0-.83-2.1C582.967,413.765,582.948,413.7,582.9,413.65Zm-2.27-55a3.212,3.212,0,1,0,0-6.423h-.015a3.212,3.212,0,1,0,.015,6.423Zm45.919,33.9h-.018a3.221,3.221,0,1,0,.018,0Zm0-60.483h-.018a3.221,3.221,0,1,0,.018,0Zm0,20.162h-.018a3.221,3.221,0,1,0,.018,0Zm0,20.16h-.018a3.221,3.221,0,1,0,.018,0Zm0-60.485h-.018a3.221,3.221,0,1,0,.018,0Zm22.959-20.162h-.017a3.221,3.221,0,1,0,.017,0ZM626.548,278a3.212,3.212,0,0,0,3.212-3.212l0,0a3.108,3.108,0,0,0-.375-1.429c-.022-.041-.05-.072-.074-.111a3.161,3.161,0,0,0-.937-1.029h0a3.132,3.132,0,0,0-1.822-.638h-.018a3.212,3.212,0,1,0,.018,6.423Zm22.959,94.385h-.017a3.221,3.221,0,1,0,.017,0Zm0,20.162h-.017a3.221,3.221,0,1,0,.017,0Zm0-80.647h-.017a3.221,3.221,0,1,0,.017,0Zm0,40.325h-.017a3.221,3.221,0,1,0,.017,0ZM534.711,311.9h-.018a2.782,2.782,0,0,0-1.022.2,3.135,3.135,0,0,0-.789.427l0,0h0a3.15,3.15,0,0,0-1.388,2.578,3.247,3.247,0,0,0,.076.386h0l0,.009a3.157,3.157,0,0,0,1.015,1.976c.074.07.17.107.251.17a3.229,3.229,0,0,0,.689.431,3.1,3.1,0,0,0,1.185.238,3.211,3.211,0,1,0,0-6.421Zm114.8,20.164h-.017a3.221,3.221,0,1,0,.017,0Zm-114.8,40.321h-.018a3.037,3.037,0,0,0-1.131.229,3.156,3.156,0,0,0-.488.275,3.3,3.3,0,0,0-.394.268,3.1,3.1,0,0,0-.538.595c-.03.046-.061.089-.092.137a3.068,3.068,0,0,0-.39.874l0,0h0a3.138,3.138,0,0,0-.166.832,3.19,3.19,0,0,0,1.817,2.859h0l0,0a3.145,3.145,0,0,0,1.381.346l.015,0a3.212,3.212,0,1,0,0-6.423Zm0-40.321h-.018a3.221,3.221,0,1,0,.018,0Zm0,20.162h-.018a3.221,3.221,0,1,0,.018,0Zm22.961-20.162h-.017a3.221,3.221,0,1,0,.017,0ZM580.629,278a3.212,3.212,0,1,0,0-6.423h-.015a3.212,3.212,0,1,0,.015,6.423Zm0,40.321a3.211,3.211,0,1,0,0-6.421h-.015a3.211,3.211,0,1,0,.015,6.421Zm0-20.159a3.212,3.212,0,1,0,0-6.424h-.015a3.212,3.212,0,1,0,.015,6.424Zm-22.957,74.223h-.017a3.221,3.221,0,1,0,.017,0Zm0-20.16h-.017a3.221,3.221,0,1,0,.017,0Zm0-60.487h-.017a3.221,3.221,0,1,0,.017,0Zm22.957,46.749a3.212,3.212,0,1,0,0-6.423h-.015a3.212,3.212,0,1,0,.015,6.423Zm-22.957,54.059h-.017a3.221,3.221,0,1,0,.017,0Zm0-80.647h-.017a3.221,3.221,0,1,0,.017,0Zm115.987,60.727a3.1,3.1,0,0,0-1.013-.2c-.063,0-.115-.037-.179-.037h-.017a3.2,3.2,0,0,0-3.2,3.212,3.1,3.1,0,0,0,.246,1.211,3.187,3.187,0,0,0,.457.7c.065.085.107.19.181.268a3.176,3.176,0,0,0,2.094.981l.013,0h0c.081,0,.148.046.229.046a3.2,3.2,0,0,0,1.192-6.182Zm-47.111,40.081h-.018a5.191,5.191,0,0,0-2.266.941,3.2,3.2,0,0,0-.887,2.02c-.007.087-.05.163-.05.251v0a3.119,3.119,0,0,0,.227,1.116,3.025,3.025,0,0,0,.153.316,3.145,3.145,0,0,0,.429.636,3.009,3.009,0,0,0,.251.277,3.21,3.21,0,0,0,.863.582h0a3.141,3.141,0,0,0,4.314-1.963,2.719,2.719,0,0,0,.19-.946l0-.02A3.212,3.212,0,0,0,626.548,412.709Z" transform="translate(-531.49 -271.577)"/></g></g><circle class="a" cx="34" cy="34" r="34" transform="translate(891.741 1022)"/></g></svg>